<mxfile host="65bd71144e">
    <diagram id="eHtZHDjXAGR3Z7nq8ZNQ" name="Page-1">
        <mxGraphModel dx="2440" dy="1078" grid="1" gridSize="10" guides="1" tooltips="1" connect="1" arrows="1" fold="1" page="1" pageScale="1" pageWidth="850" pageHeight="1100" math="0" shadow="0">
            <root>
                <mxCell id="0"/>
                <mxCell id="1" parent="0"/>
                <mxCell id="2" value="FinancialEntity" style="rounded=0;whiteSpace=wrap;html=1;" vertex="1" parent="1">
                    <mxGeometry x="120" y="160" width="120" height="50" as="geometry"/>
                </mxCell>
                <mxCell id="3" value="name" style="rounded=0;whiteSpace=wrap;html=1;fontStyle=1" vertex="1" parent="1">
                    <mxGeometry x="120" y="210" width="120" height="30" as="geometry"/>
                </mxCell>
                <mxCell id="6" value="value" style="rounded=0;whiteSpace=wrap;html=1;fontStyle=1" vertex="1" parent="1">
                    <mxGeometry x="120" y="240" width="120" height="30" as="geometry"/>
                </mxCell>
                <mxCell id="7" value="start_date" style="rounded=0;whiteSpace=wrap;html=1;fontStyle=1" vertex="1" parent="1">
                    <mxGeometry x="120" y="270" width="120" height="30" as="geometry"/>
                </mxCell>
                <mxCell id="8" value="end_date" style="rounded=0;whiteSpace=wrap;html=1;fontStyle=1" vertex="1" parent="1">
                    <mxGeometry x="120" y="300" width="120" height="30" as="geometry"/>
                </mxCell>
                <mxCell id="20" style="edgeStyle=none;html=1;exitX=1;exitY=0.5;exitDx=0;exitDy=0;entryX=0;entryY=0.5;entryDx=0;entryDy=0;" edge="1" parent="1" source="9" target="19">
                    <mxGeometry relative="1" as="geometry"/>
                </mxCell>
                <mxCell id="9" value="monthly_cashflow()" style="rounded=0;whiteSpace=wrap;html=1;" vertex="1" parent="1">
                    <mxGeometry x="120" y="360" width="120" height="30" as="geometry"/>
                </mxCell>
                <mxCell id="10" value="current_value()" style="rounded=0;whiteSpace=wrap;html=1;" vertex="1" parent="1">
                    <mxGeometry x="120" y="390" width="120" height="30" as="geometry"/>
                </mxCell>
                <mxCell id="11" value="update()" style="rounded=0;whiteSpace=wrap;html=1;" vertex="1" parent="1">
                    <mxGeometry x="120" y="420" width="120" height="30" as="geometry"/>
                </mxCell>
                <mxCell id="13" value="is_active_on()" style="rounded=0;whiteSpace=wrap;html=1;" vertex="1" parent="1">
                    <mxGeometry x="120" y="330" width="120" height="30" as="geometry"/>
                </mxCell>
                <mxCell id="15" value="CashFlow" style="rounded=0;whiteSpace=wrap;html=1;" vertex="1" parent="1">
                    <mxGeometry x="360" y="160" width="120" height="50" as="geometry"/>
                </mxCell>
                <mxCell id="16" value="inflows" style="rounded=0;whiteSpace=wrap;html=1;fontStyle=1" vertex="1" parent="1">
                    <mxGeometry x="360" y="210" width="120" height="30" as="geometry"/>
                </mxCell>
                <mxCell id="17" value="outflows" style="rounded=0;whiteSpace=wrap;html=1;fontStyle=1" vertex="1" parent="1">
                    <mxGeometry x="360" y="240" width="120" height="30" as="geometry"/>
                </mxCell>
                <mxCell id="25" style="edgeStyle=none;html=1;exitX=1;exitY=0.5;exitDx=0;exitDy=0;entryX=0;entryY=0;entryDx=0;entryDy=0;" edge="1" parent="1" source="19" target="23">
                    <mxGeometry relative="1" as="geometry"/>
                </mxCell>
                <mxCell id="19" value="&lt;span style=&quot;font-weight: normal;&quot;&gt;process_monthl()&lt;/span&gt;" style="rounded=0;whiteSpace=wrap;html=1;fontStyle=1" vertex="1" parent="1">
                    <mxGeometry x="360" y="360" width="120" height="30" as="geometry"/>
                </mxCell>
                <mxCell id="21" value="Balance" style="rounded=0;whiteSpace=wrap;html=1;" vertex="1" parent="1">
                    <mxGeometry x="600" y="160" width="120" height="50" as="geometry"/>
                </mxCell>
                <mxCell id="22" value="assets" style="rounded=0;whiteSpace=wrap;html=1;fontStyle=1" vertex="1" parent="1">
                    <mxGeometry x="600" y="210" width="120" height="30" as="geometry"/>
                </mxCell>
                <mxCell id="23" value="liabilities" style="rounded=0;whiteSpace=wrap;html=1;fontStyle=1" vertex="1" parent="1">
                    <mxGeometry x="600" y="240" width="120" height="30" as="geometry"/>
                </mxCell>
                <mxCell id="26" value="Simulation" style="rounded=0;whiteSpace=wrap;html=1;" vertex="1" parent="1">
                    <mxGeometry x="-360" y="160" width="120" height="50" as="geometry"/>
                </mxCell>
                <mxCell id="27" value="current_date" style="rounded=0;whiteSpace=wrap;html=1;fontStyle=1" vertex="1" parent="1">
                    <mxGeometry x="360" y="270" width="120" height="30" as="geometry"/>
                </mxCell>
                <mxCell id="29" value="current_date" style="rounded=0;whiteSpace=wrap;html=1;fontStyle=1" vertex="1" parent="1">
                    <mxGeometry x="600" y="270" width="120" height="30" as="geometry"/>
                </mxCell>
                <mxCell id="30" value="&lt;span style=&quot;font-weight: normal;&quot;&gt;process_month()&lt;/span&gt;" style="rounded=0;whiteSpace=wrap;html=1;fontStyle=1" vertex="1" parent="1">
                    <mxGeometry x="600" y="360" width="120" height="30" as="geometry"/>
                </mxCell>
                <mxCell id="31" value="start_date" style="rounded=0;whiteSpace=wrap;html=1;fontStyle=1" vertex="1" parent="1">
                    <mxGeometry x="-360" y="210" width="120" height="30" as="geometry"/>
                </mxCell>
                <mxCell id="32" value="duration" style="rounded=0;whiteSpace=wrap;html=1;fontStyle=1" vertex="1" parent="1">
                    <mxGeometry x="-360" y="240" width="120" height="30" as="geometry"/>
                </mxCell>
                <mxCell id="33" value="[Events]" style="rounded=0;whiteSpace=wrap;html=1;fontStyle=1" vertex="1" parent="1">
                    <mxGeometry x="-360" y="300" width="120" height="30" as="geometry"/>
                </mxCell>
                <mxCell id="40" style="edgeStyle=none;html=1;exitX=0;exitY=0.5;exitDx=0;exitDy=0;entryX=1;entryY=0.5;entryDx=0;entryDy=0;" edge="1" parent="1" source="34" target="33">
                    <mxGeometry relative="1" as="geometry">
                        <mxPoint x="-200" y="185" as="sourcePoint"/>
                    </mxGeometry>
                </mxCell>
                <mxCell id="34" value="Event" style="rounded=0;whiteSpace=wrap;html=1;" vertex="1" parent="1">
                    <mxGeometry x="-120" y="160" width="120" height="50" as="geometry"/>
                </mxCell>
                <mxCell id="35" value="financialentityname" style="rounded=0;whiteSpace=wrap;html=1;fontStyle=1" vertex="1" parent="1">
                    <mxGeometry x="-120" y="210" width="120" height="30" as="geometry"/>
                </mxCell>
                <mxCell id="36" value="date" style="rounded=0;whiteSpace=wrap;html=1;fontStyle=1" vertex="1" parent="1">
                    <mxGeometry x="-120" y="240" width="120" height="30" as="geometry"/>
                </mxCell>
                <mxCell id="37" value="action" style="rounded=0;whiteSpace=wrap;html=1;fontStyle=1" vertex="1" parent="1">
                    <mxGeometry x="-120" y="270" width="120" height="30" as="geometry"/>
                </mxCell>
                <mxCell id="42" style="edgeStyle=none;html=1;exitX=1;exitY=0.5;exitDx=0;exitDy=0;entryX=0;entryY=0.5;entryDx=0;entryDy=0;" edge="1" parent="1" source="39" target="2">
                    <mxGeometry relative="1" as="geometry"/>
                </mxCell>
                <mxCell id="39" value="create, delete, update" style="rounded=0;whiteSpace=wrap;html=1;fontStyle=0" vertex="1" parent="1">
                    <mxGeometry x="-120" y="300" width="120" height="30" as="geometry"/>
                </mxCell>
                <mxCell id="41" value="simulation_results" style="rounded=0;whiteSpace=wrap;html=1;fontStyle=1" vertex="1" parent="1">
                    <mxGeometry x="-360" y="270" width="120" height="30" as="geometry"/>
                </mxCell>
                <mxCell id="44" style="edgeStyle=none;html=1;exitX=1;exitY=0.5;exitDx=0;exitDy=0;entryX=0;entryY=0.5;entryDx=0;entryDy=0;" edge="1" parent="1" source="43" target="45">
                    <mxGeometry relative="1" as="geometry">
                        <mxPoint x="660" y="739.8888888888889" as="targetPoint"/>
                    </mxGeometry>
                </mxCell>
                <mxCell id="43" value="salaire" style="rounded=0;whiteSpace=wrap;html=1;" vertex="1" parent="1">
                    <mxGeometry x="440" y="700" width="120" height="50" as="geometry"/>
                </mxCell>
                <mxCell id="53" style="edgeStyle=none;html=1;exitX=1;exitY=0.5;exitDx=0;exitDy=0;" edge="1" parent="1" source="45" target="48">
                    <mxGeometry relative="1" as="geometry"/>
                </mxCell>
                <mxCell id="45" value="CashFlow" style="rounded=0;whiteSpace=wrap;html=1;" vertex="1" parent="1">
                    <mxGeometry x="660" y="700" width="120" height="50" as="geometry"/>
                </mxCell>
                <mxCell id="46" value="&lt;span style=&quot;font-weight: normal;&quot;&gt;inflows: 3000$&lt;/span&gt;" style="rounded=0;whiteSpace=wrap;html=1;fontStyle=1" vertex="1" parent="1">
                    <mxGeometry x="780" y="780" width="120" height="30" as="geometry"/>
                </mxCell>
                <mxCell id="47" value="&lt;span style=&quot;font-weight: normal;&quot;&gt;process_monthl()&lt;/span&gt;" style="rounded=0;whiteSpace=wrap;html=1;fontStyle=1" vertex="1" parent="1">
                    <mxGeometry x="660" y="780" width="120" height="30" as="geometry"/>
                </mxCell>
                <mxCell id="48" value="Balance" style="rounded=0;whiteSpace=wrap;html=1;" vertex="1" parent="1">
                    <mxGeometry x="960" y="700" width="120" height="50" as="geometry"/>
                </mxCell>
                <mxCell id="50" value="&lt;span style=&quot;font-weight: normal;&quot;&gt;process_month()&lt;/span&gt;" style="rounded=0;whiteSpace=wrap;html=1;fontStyle=1" vertex="1" parent="1">
                    <mxGeometry x="960" y="750" width="120" height="30" as="geometry"/>
                </mxCell>
                <mxCell id="51" value="assets" style="rounded=0;whiteSpace=wrap;html=1;fontStyle=1" vertex="1" parent="1">
                    <mxGeometry x="1320" y="720" width="120" height="30" as="geometry"/>
                </mxCell>
                <mxCell id="52" value="bank: +3000$" style="rounded=0;whiteSpace=wrap;html=1;fontStyle=0" vertex="1" parent="1">
                    <mxGeometry x="1320" y="750" width="120" height="30" as="geometry"/>
                </mxCell>
                <mxCell id="54" value="&lt;span style=&quot;font-weight: normal;&quot;&gt;net_worth()&lt;/span&gt;" style="rounded=0;whiteSpace=wrap;html=1;fontStyle=1" vertex="1" parent="1">
                    <mxGeometry x="600" y="390" width="120" height="30" as="geometry"/>
                </mxCell>
                <mxCell id="55" value="&lt;span style=&quot;font-weight: normal;&quot;&gt;net_worth()&lt;/span&gt;" style="rounded=0;whiteSpace=wrap;html=1;fontStyle=1" vertex="1" parent="1">
                    <mxGeometry x="960" y="810" width="120" height="30" as="geometry"/>
                </mxCell>
                <mxCell id="56" value="&lt;span style=&quot;font-weight: normal;&quot;&gt;current_value()&lt;/span&gt;" style="rounded=0;whiteSpace=wrap;html=1;fontStyle=1" vertex="1" parent="1">
                    <mxGeometry x="1080" y="810" width="120" height="30" as="geometry"/>
                </mxCell>
                <mxCell id="57" value="30,000$" style="rounded=0;whiteSpace=wrap;html=1;fontStyle=0" vertex="1" parent="1">
                    <mxGeometry x="1200" y="810" width="120" height="30" as="geometry"/>
                </mxCell>
                <mxCell id="58" value="actions -&amp;gt;" style="rounded=0;whiteSpace=wrap;html=1;fontStyle=0" vertex="1" parent="1">
                    <mxGeometry x="1080" y="750" width="120" height="30" as="geometry"/>
                </mxCell>
                <mxCell id="59" value="update()" style="rounded=0;whiteSpace=wrap;html=1;fontStyle=0" vertex="1" parent="1">
                    <mxGeometry x="1200" y="750" width="120" height="30" as="geometry"/>
                </mxCell>
                <mxCell id="67" style="edgeStyle=none;html=1;exitX=1;exitY=0.5;exitDx=0;exitDy=0;" edge="1" parent="1" source="61" target="43">
                    <mxGeometry relative="1" as="geometry"/>
                </mxCell>
                <mxCell id="61" value="Event" style="rounded=0;whiteSpace=wrap;html=1;" vertex="1" parent="1">
                    <mxGeometry x="130" y="700" width="120" height="50" as="geometry"/>
                </mxCell>
                <mxCell id="64" value="actions -&amp;gt;" style="rounded=0;whiteSpace=wrap;html=1;fontStyle=0" vertex="1" parent="1">
                    <mxGeometry x="130" y="750" width="120" height="30" as="geometry"/>
                </mxCell>
                <mxCell id="65" value="create()" style="rounded=0;whiteSpace=wrap;html=1;fontStyle=0" vertex="1" parent="1">
                    <mxGeometry x="250" y="750" width="120" height="30" as="geometry"/>
                </mxCell>
                <mxCell id="66" value="&lt;span style=&quot;font-weight: normal;&quot;&gt;value: 3000$&lt;/span&gt;" style="rounded=0;whiteSpace=wrap;html=1;fontStyle=1" vertex="1" parent="1">
                    <mxGeometry x="440" y="750" width="120" height="30" as="geometry"/>
                </mxCell>
                <mxCell id="68" style="edgeStyle=none;html=1;exitX=1;exitY=0.5;exitDx=0;exitDy=0;entryX=0;entryY=0.5;entryDx=0;entryDy=0;" edge="1" parent="1" source="69" target="71">
                    <mxGeometry relative="1" as="geometry">
                        <mxPoint x="650" y="959.8888888888889" as="targetPoint"/>
                    </mxGeometry>
                </mxCell>
                <mxCell id="69" value="salaire" style="rounded=0;whiteSpace=wrap;html=1;" vertex="1" parent="1">
                    <mxGeometry x="430" y="920" width="120" height="50" as="geometry"/>
                </mxCell>
                <mxCell id="70" style="edgeStyle=none;html=1;exitX=1;exitY=0.5;exitDx=0;exitDy=0;" edge="1" parent="1" source="71" target="74">
                    <mxGeometry relative="1" as="geometry"/>
                </mxCell>
                <mxCell id="71" value="CashFlow" style="rounded=0;whiteSpace=wrap;html=1;" vertex="1" parent="1">
                    <mxGeometry x="650" y="920" width="120" height="50" as="geometry"/>
                </mxCell>
                <mxCell id="72" value="&lt;span style=&quot;font-weight: normal;&quot;&gt;inflows: 2000$&lt;/span&gt;" style="rounded=0;whiteSpace=wrap;html=1;fontStyle=1" vertex="1" parent="1">
                    <mxGeometry x="770" y="1000" width="120" height="30" as="geometry"/>
                </mxCell>
                <mxCell id="73" value="&lt;span style=&quot;font-weight: normal;&quot;&gt;process_monthl()&lt;/span&gt;" style="rounded=0;whiteSpace=wrap;html=1;fontStyle=1" vertex="1" parent="1">
                    <mxGeometry x="650" y="1000" width="120" height="30" as="geometry"/>
                </mxCell>
                <mxCell id="74" value="Balance" style="rounded=0;whiteSpace=wrap;html=1;" vertex="1" parent="1">
                    <mxGeometry x="950" y="920" width="120" height="50" as="geometry"/>
                </mxCell>
                <mxCell id="75" value="&lt;span style=&quot;font-weight: normal;&quot;&gt;process_month()&lt;/span&gt;" style="rounded=0;whiteSpace=wrap;html=1;fontStyle=1" vertex="1" parent="1">
                    <mxGeometry x="950" y="970" width="120" height="30" as="geometry"/>
                </mxCell>
                <mxCell id="76" value="assets" style="rounded=0;whiteSpace=wrap;html=1;fontStyle=1" vertex="1" parent="1">
                    <mxGeometry x="1310" y="940" width="120" height="30" as="geometry"/>
                </mxCell>
                <mxCell id="77" value="bank: +2000$" style="rounded=0;whiteSpace=wrap;html=1;fontStyle=0" vertex="1" parent="1">
                    <mxGeometry x="1310" y="970" width="120" height="30" as="geometry"/>
                </mxCell>
                <mxCell id="78" value="&lt;span style=&quot;font-weight: normal;&quot;&gt;net_worth()&lt;/span&gt;" style="rounded=0;whiteSpace=wrap;html=1;fontStyle=1" vertex="1" parent="1">
                    <mxGeometry x="950" y="1030" width="120" height="30" as="geometry"/>
                </mxCell>
                <mxCell id="79" value="&lt;span style=&quot;font-weight: normal;&quot;&gt;current_value()&lt;/span&gt;" style="rounded=0;whiteSpace=wrap;html=1;fontStyle=1" vertex="1" parent="1">
                    <mxGeometry x="1070" y="1030" width="120" height="30" as="geometry"/>
                </mxCell>
                <mxCell id="80" value="30,000$" style="rounded=0;whiteSpace=wrap;html=1;fontStyle=0" vertex="1" parent="1">
                    <mxGeometry x="1190" y="1030" width="120" height="30" as="geometry"/>
                </mxCell>
                <mxCell id="81" value="actions -&amp;gt;" style="rounded=0;whiteSpace=wrap;html=1;fontStyle=0" vertex="1" parent="1">
                    <mxGeometry x="1070" y="970" width="120" height="30" as="geometry"/>
                </mxCell>
                <mxCell id="82" value="update()" style="rounded=0;whiteSpace=wrap;html=1;fontStyle=0" vertex="1" parent="1">
                    <mxGeometry x="1190" y="970" width="120" height="30" as="geometry"/>
                </mxCell>
                <mxCell id="83" style="edgeStyle=none;html=1;exitX=1;exitY=0.5;exitDx=0;exitDy=0;" edge="1" parent="1" source="84" target="69">
                    <mxGeometry relative="1" as="geometry"/>
                </mxCell>
                <mxCell id="84" value="Event" style="rounded=0;whiteSpace=wrap;html=1;" vertex="1" parent="1">
                    <mxGeometry x="120" y="920" width="120" height="50" as="geometry"/>
                </mxCell>
                <mxCell id="85" value="actions -&amp;gt;" style="rounded=0;whiteSpace=wrap;html=1;fontStyle=0" vertex="1" parent="1">
                    <mxGeometry x="120" y="970" width="120" height="30" as="geometry"/>
                </mxCell>
                <mxCell id="86" value="update()" style="rounded=0;whiteSpace=wrap;html=1;fontStyle=0" vertex="1" parent="1">
                    <mxGeometry x="240" y="970" width="120" height="30" as="geometry"/>
                </mxCell>
                <mxCell id="87" value="&lt;span style=&quot;font-weight: normal;&quot;&gt;value: 2000$&lt;/span&gt;" style="rounded=0;whiteSpace=wrap;html=1;fontStyle=1" vertex="1" parent="1">
                    <mxGeometry x="430" y="970" width="120" height="30" as="geometry"/>
                </mxCell>
                <mxCell id="88" style="edgeStyle=none;html=1;exitX=1;exitY=0.5;exitDx=0;exitDy=0;entryX=0;entryY=0.5;entryDx=0;entryDy=0;" edge="1" parent="1" source="89">
                    <mxGeometry relative="1" as="geometry">
                        <mxPoint x="650" y="1125" as="targetPoint"/>
                    </mxGeometry>
                </mxCell>
                <mxCell id="89" value="salaire" style="rounded=0;whiteSpace=wrap;html=1;" vertex="1" parent="1">
                    <mxGeometry x="430" y="1100" width="120" height="50" as="geometry"/>
                </mxCell>
                <mxCell id="103" style="edgeStyle=none;html=1;exitX=1;exitY=0.5;exitDx=0;exitDy=0;" edge="1" parent="1" source="104" target="89">
                    <mxGeometry relative="1" as="geometry"/>
                </mxCell>
                <mxCell id="104" value="Event" style="rounded=0;whiteSpace=wrap;html=1;" vertex="1" parent="1">
                    <mxGeometry x="120" y="1100" width="120" height="50" as="geometry"/>
                </mxCell>
                <mxCell id="105" value="actions -&amp;gt;" style="rounded=0;whiteSpace=wrap;html=1;fontStyle=0" vertex="1" parent="1">
                    <mxGeometry x="120" y="1150" width="120" height="30" as="geometry"/>
                </mxCell>
                <mxCell id="106" value="delete()" style="rounded=0;whiteSpace=wrap;html=1;fontStyle=0" vertex="1" parent="1">
                    <mxGeometry x="240" y="1150" width="120" height="30" as="geometry"/>
                </mxCell>
                <mxCell id="108" value="delete()" style="rounded=0;whiteSpace=wrap;html=1;" vertex="1" parent="1">
                    <mxGeometry x="430" y="1150" width="120" height="30" as="geometry"/>
                </mxCell>
                <mxCell id="109" value="CashFlow" style="rounded=0;whiteSpace=wrap;html=1;" vertex="1" parent="1">
                    <mxGeometry x="650" y="1100" width="120" height="50" as="geometry"/>
                </mxCell>
                <mxCell id="111" value="delete()" style="rounded=0;whiteSpace=wrap;html=1;" vertex="1" parent="1">
                    <mxGeometry x="650" y="1150" width="120" height="30" as="geometry"/>
                </mxCell>
                <mxCell id="112" value="&lt;span style=&quot;font-weight: normal;&quot;&gt;update()&lt;/span&gt;" style="rounded=0;whiteSpace=wrap;html=1;fontStyle=1" vertex="1" parent="1">
                    <mxGeometry x="360" y="300" width="120" height="30" as="geometry"/>
                </mxCell>
                <mxCell id="113" value="&lt;span style=&quot;font-weight: normal;&quot;&gt;delete()&lt;/span&gt;" style="rounded=0;whiteSpace=wrap;html=1;fontStyle=1" vertex="1" parent="1">
                    <mxGeometry x="360" y="330" width="120" height="30" as="geometry"/>
                </mxCell>
                <mxCell id="115" value="&lt;span style=&quot;font-weight: normal;&quot;&gt;update()&lt;/span&gt;" style="rounded=0;whiteSpace=wrap;html=1;fontStyle=1" vertex="1" parent="1">
                    <mxGeometry x="600" y="300" width="120" height="30" as="geometry"/>
                </mxCell>
                <mxCell id="116" value="&lt;span style=&quot;font-weight: normal;&quot;&gt;delete()&lt;/span&gt;" style="rounded=0;whiteSpace=wrap;html=1;fontStyle=1" vertex="1" parent="1">
                    <mxGeometry x="600" y="330" width="120" height="30" as="geometry"/>
                </mxCell>
                <mxCell id="123" style="edgeStyle=none;html=1;exitX=1;exitY=0.5;exitDx=0;exitDy=0;entryX=0;entryY=0.5;entryDx=0;entryDy=0;" edge="1" parent="1" source="117" target="120">
                    <mxGeometry relative="1" as="geometry"/>
                </mxCell>
                <mxCell id="117" value="Event" style="rounded=0;whiteSpace=wrap;html=1;" vertex="1" parent="1">
                    <mxGeometry x="120" y="1250" width="120" height="50" as="geometry"/>
                </mxCell>
                <mxCell id="118" value="actions -&amp;gt;" style="rounded=0;whiteSpace=wrap;html=1;fontStyle=0" vertex="1" parent="1">
                    <mxGeometry x="120" y="1300" width="120" height="30" as="geometry"/>
                </mxCell>
                <mxCell id="119" value="create()" style="rounded=0;whiteSpace=wrap;html=1;fontStyle=0" vertex="1" parent="1">
                    <mxGeometry x="240" y="1300" width="120" height="30" as="geometry"/>
                </mxCell>
                <mxCell id="127" style="edgeStyle=none;html=1;exitX=1;exitY=0.5;exitDx=0;exitDy=0;" edge="1" parent="1" source="120" target="124">
                    <mxGeometry relative="1" as="geometry"/>
                </mxCell>
                <mxCell id="120" value="Loan" style="rounded=0;whiteSpace=wrap;html=1;" vertex="1" parent="1">
                    <mxGeometry x="430" y="1250" width="120" height="50" as="geometry"/>
                </mxCell>
                <mxCell id="124" value="CashFlow" style="rounded=0;whiteSpace=wrap;html=1;" vertex="1" parent="1">
                    <mxGeometry x="650" y="1250" width="120" height="50" as="geometry"/>
                </mxCell>
                <mxCell id="125" value="&lt;span style=&quot;font-weight: normal;&quot;&gt;update: Salare&lt;/span&gt;" style="rounded=0;whiteSpace=wrap;html=1;fontStyle=1" vertex="1" parent="1">
                    <mxGeometry x="660" y="750" width="120" height="30" as="geometry"/>
                </mxCell>
                <mxCell id="126" value="&lt;span style=&quot;font-weight: normal;&quot;&gt;update: Salare&lt;/span&gt;" style="rounded=0;whiteSpace=wrap;html=1;fontStyle=1" vertex="1" parent="1">
                    <mxGeometry x="650" y="970" width="120" height="30" as="geometry"/>
                </mxCell>
                <mxCell id="128" value="&lt;span style=&quot;font-weight: normal;&quot;&gt;update: Loan&lt;/span&gt;" style="rounded=0;whiteSpace=wrap;html=1;fontStyle=1" vertex="1" parent="1">
                    <mxGeometry x="650" y="1300" width="120" height="30" as="geometry"/>
                </mxCell>
                <mxCell id="129" value="&lt;span style=&quot;font-weight: normal;&quot;&gt;outflow: -2000$&lt;/span&gt;" style="rounded=0;whiteSpace=wrap;html=1;fontStyle=1" vertex="1" parent="1">
                    <mxGeometry x="770" y="1330" width="120" height="30" as="geometry"/>
                </mxCell>
                <mxCell id="130" value="&lt;span style=&quot;font-weight: normal;&quot;&gt;process_monthl()&lt;/span&gt;" style="rounded=0;whiteSpace=wrap;html=1;fontStyle=1" vertex="1" parent="1">
                    <mxGeometry x="650" y="1330" width="120" height="30" as="geometry"/>
                </mxCell>
                <mxCell id="131" value="Balance" style="rounded=0;whiteSpace=wrap;html=1;" vertex="1" parent="1">
                    <mxGeometry x="940" y="1240" width="120" height="50" as="geometry"/>
                </mxCell>
                <mxCell id="132" value="&lt;span style=&quot;font-weight: normal;&quot;&gt;process_month()&lt;/span&gt;" style="rounded=0;whiteSpace=wrap;html=1;fontStyle=1" vertex="1" parent="1">
                    <mxGeometry x="940" y="1290" width="120" height="30" as="geometry"/>
                </mxCell>
                <mxCell id="133" value="actions -&amp;gt;" style="rounded=0;whiteSpace=wrap;html=1;fontStyle=0" vertex="1" parent="1">
                    <mxGeometry x="1060" y="1290" width="120" height="30" as="geometry"/>
                </mxCell>
                <mxCell id="134" value="update()" style="rounded=0;whiteSpace=wrap;html=1;fontStyle=0" vertex="1" parent="1">
                    <mxGeometry x="1180" y="1290" width="120" height="30" as="geometry"/>
                </mxCell>
                <mxCell id="138" value="assets" style="rounded=0;whiteSpace=wrap;html=1;fontStyle=1" vertex="1" parent="1">
                    <mxGeometry x="1300" y="1260" width="120" height="30" as="geometry"/>
                </mxCell>
                <mxCell id="139" value="bank: -2000$" style="rounded=0;whiteSpace=wrap;html=1;fontStyle=0" vertex="1" parent="1">
                    <mxGeometry x="1300" y="1290" width="120" height="30" as="geometry"/>
                </mxCell>
                <mxCell id="141" style="edgeStyle=none;html=1;exitX=1;exitY=0.5;exitDx=0;exitDy=0;entryX=0;entryY=0.5;entryDx=0;entryDy=0;" edge="1" parent="1" source="142" target="145">
                    <mxGeometry relative="1" as="geometry"/>
                </mxCell>
                <mxCell id="142" value="Event" style="rounded=0;whiteSpace=wrap;html=1;" vertex="1" parent="1">
                    <mxGeometry x="120" y="1430" width="120" height="50" as="geometry"/>
                </mxCell>
                <mxCell id="143" value="actions -&amp;gt;" style="rounded=0;whiteSpace=wrap;html=1;fontStyle=0" vertex="1" parent="1">
                    <mxGeometry x="120" y="1480" width="120" height="30" as="geometry"/>
                </mxCell>
                <mxCell id="144" value="create()" style="rounded=0;whiteSpace=wrap;html=1;fontStyle=0" vertex="1" parent="1">
                    <mxGeometry x="240" y="1480" width="120" height="30" as="geometry"/>
                </mxCell>
                <mxCell id="147" style="edgeStyle=none;html=1;exitX=1;exitY=0.5;exitDx=0;exitDy=0;entryX=0;entryY=0.5;entryDx=0;entryDy=0;" edge="1" parent="1" source="145" target="146">
                    <mxGeometry relative="1" as="geometry"/>
                </mxCell>
                <mxCell id="145" value="Stock" style="rounded=0;whiteSpace=wrap;html=1;" vertex="1" parent="1">
                    <mxGeometry x="430" y="1430" width="120" height="50" as="geometry"/>
                </mxCell>
                <mxCell id="146" value="CashFlow" style="rounded=0;whiteSpace=wrap;html=1;" vertex="1" parent="1">
                    <mxGeometry x="650" y="1430" width="120" height="50" as="geometry"/>
                </mxCell>
                <mxCell id="148" value="&lt;span style=&quot;font-weight: 400;&quot;&gt;inflows:0$&lt;/span&gt;" style="rounded=0;whiteSpace=wrap;html=1;fontStyle=1" vertex="1" parent="1">
                    <mxGeometry x="770" y="1480" width="120" height="30" as="geometry"/>
                </mxCell>
                <mxCell id="149" value="&lt;span style=&quot;font-weight: normal;&quot;&gt;process_monthl()&lt;/span&gt;" style="rounded=0;whiteSpace=wrap;html=1;fontStyle=1" vertex="1" parent="1">
                    <mxGeometry x="650" y="1480" width="120" height="30" as="geometry"/>
                </mxCell>
                <mxCell id="150" value="Balance" style="rounded=0;whiteSpace=wrap;html=1;" vertex="1" parent="1">
                    <mxGeometry x="940" y="1430" width="120" height="50" as="geometry"/>
                </mxCell>
                <mxCell id="152" value="&lt;span style=&quot;font-weight: normal;&quot;&gt;process_month()&lt;/span&gt;" style="rounded=0;whiteSpace=wrap;html=1;fontStyle=1" vertex="1" parent="1">
                    <mxGeometry x="940" y="1480" width="120" height="30" as="geometry"/>
                </mxCell>
                <mxCell id="153" value="actions -&amp;gt;" style="rounded=0;whiteSpace=wrap;html=1;fontStyle=0" vertex="1" parent="1">
                    <mxGeometry x="1060" y="1480" width="120" height="30" as="geometry"/>
                </mxCell>
                <mxCell id="155" value="assets" style="rounded=0;whiteSpace=wrap;html=1;fontStyle=1" vertex="1" parent="1">
                    <mxGeometry x="1300" y="1450" width="120" height="30" as="geometry"/>
                </mxCell>
                <mxCell id="156" value="stock: 2000" style="rounded=0;whiteSpace=wrap;html=1;fontStyle=0" vertex="1" parent="1">
                    <mxGeometry x="1300" y="1480" width="120" height="30" as="geometry"/>
                </mxCell>
                <mxCell id="157" style="edgeStyle=none;html=1;exitX=1;exitY=0.5;exitDx=0;exitDy=0;entryX=0;entryY=0.5;entryDx=0;entryDy=0;" edge="1" parent="1" source="158" target="162">
                    <mxGeometry relative="1" as="geometry"/>
                </mxCell>
                <mxCell id="158" value="Event" style="rounded=0;whiteSpace=wrap;html=1;" vertex="1" parent="1">
                    <mxGeometry x="120" y="1590" width="120" height="50" as="geometry"/>
                </mxCell>
                <mxCell id="159" value="actions -&amp;gt;" style="rounded=0;whiteSpace=wrap;html=1;fontStyle=0" vertex="1" parent="1">
                    <mxGeometry x="120" y="1640" width="120" height="30" as="geometry"/>
                </mxCell>
                <mxCell id="160" value="sell()" style="rounded=0;whiteSpace=wrap;html=1;fontStyle=0" vertex="1" parent="1">
                    <mxGeometry x="240" y="1640" width="120" height="30" as="geometry"/>
                </mxCell>
                <mxCell id="173" style="edgeStyle=none;html=1;exitX=1;exitY=0.5;exitDx=0;exitDy=0;entryX=0;entryY=0.5;entryDx=0;entryDy=0;" edge="1" parent="1" source="162" target="163">
                    <mxGeometry relative="1" as="geometry"/>
                </mxCell>
                <mxCell id="162" value="Stock" style="rounded=0;whiteSpace=wrap;html=1;" vertex="1" parent="1">
                    <mxGeometry x="430" y="1590" width="120" height="50" as="geometry"/>
                </mxCell>
                <mxCell id="174" style="edgeStyle=none;html=1;exitX=1;exitY=0.5;exitDx=0;exitDy=0;" edge="1" parent="1" source="163" target="166">
                    <mxGeometry relative="1" as="geometry"/>
                </mxCell>
                <mxCell id="163" value="CashFlow" style="rounded=0;whiteSpace=wrap;html=1;" vertex="1" parent="1">
                    <mxGeometry x="660" y="1590" width="120" height="50" as="geometry"/>
                </mxCell>
                <mxCell id="164" value="&lt;span style=&quot;font-weight: 400;&quot;&gt;inflows:2000$&lt;/span&gt;" style="rounded=0;whiteSpace=wrap;html=1;fontStyle=1" vertex="1" parent="1">
                    <mxGeometry x="780" y="1640" width="120" height="30" as="geometry"/>
                </mxCell>
                <mxCell id="165" value="&lt;span style=&quot;font-weight: normal;&quot;&gt;process_monthl()&lt;/span&gt;" style="rounded=0;whiteSpace=wrap;html=1;fontStyle=1" vertex="1" parent="1">
                    <mxGeometry x="660" y="1640" width="120" height="30" as="geometry"/>
                </mxCell>
                <mxCell id="166" value="Balance" style="rounded=0;whiteSpace=wrap;html=1;" vertex="1" parent="1">
                    <mxGeometry x="940" y="1590" width="120" height="50" as="geometry"/>
                </mxCell>
                <mxCell id="167" value="&lt;span style=&quot;font-weight: normal;&quot;&gt;process_month()&lt;/span&gt;" style="rounded=0;whiteSpace=wrap;html=1;fontStyle=1" vertex="1" parent="1">
                    <mxGeometry x="940" y="1640" width="120" height="30" as="geometry"/>
                </mxCell>
                <mxCell id="168" value="actions -&amp;gt;" style="rounded=0;whiteSpace=wrap;html=1;fontStyle=0" vertex="1" parent="1">
                    <mxGeometry x="1060" y="1640" width="120" height="30" as="geometry"/>
                </mxCell>
                <mxCell id="169" value="assets" style="rounded=0;whiteSpace=wrap;html=1;fontStyle=1" vertex="1" parent="1">
                    <mxGeometry x="1310" y="1610" width="120" height="30" as="geometry"/>
                </mxCell>
                <mxCell id="170" value="stock: 20" style="rounded=0;whiteSpace=wrap;html=1;fontStyle=0" vertex="1" parent="1">
                    <mxGeometry x="1310" y="1640" width="120" height="30" as="geometry"/>
                </mxCell>
                <mxCell id="171" value="update()" style="rounded=0;whiteSpace=wrap;html=1;" vertex="1" parent="1">
                    <mxGeometry x="430" y="1300" width="120" height="30" as="geometry"/>
                </mxCell>
                <mxCell id="172" value="update()" style="rounded=0;whiteSpace=wrap;html=1;" vertex="1" parent="1">
                    <mxGeometry x="430" y="1640" width="120" height="30" as="geometry"/>
                </mxCell>
                <mxCell id="175" value="Bank: +200" style="rounded=0;whiteSpace=wrap;html=1;fontStyle=0" vertex="1" parent="1">
                    <mxGeometry x="1310" y="1670" width="120" height="30" as="geometry"/>
                </mxCell>
            </root>
        </mxGraphModel>
    </diagram>
</mxfile>